<svg width="192" height="109" viewBox="0 0 192 109" fill="none" xmlns="http://www.w3.org/2000/svg">
<path opacity="0.2" fill-rule="evenodd" clip-rule="evenodd" d="M148.2 146.799C140.979 162.044 132.574 167.998 125.955 167.998C119.335 167.998 110.931 162.044 103.709 146.799C101.193 141.486 98.9957 135.363 97.2179 128.599C106.16 127.098 115.83 126.272 125.955 126.272C136.079 126.272 145.749 127.098 154.691 128.599C152.914 135.363 150.717 141.486 148.2 146.799ZM92.3651 93.8509C92.676 103.424 93.7424 112.49 95.4127 120.792C104.994 119.155 115.281 118.272 125.955 118.272C136.628 118.272 146.915 119.155 156.496 120.792C158.167 112.49 159.233 103.424 159.544 93.8509H92.3651ZM92.2831 85.8509C92.4126 74.9095 93.5283 64.5707 95.4126 55.2046C104.994 56.8419 115.281 57.7244 125.955 57.7244C136.628 57.7244 146.915 56.8419 156.497 55.2047C158.381 64.5707 159.497 74.9095 159.626 85.8509H92.2831ZM167.548 93.8509C167.236 103.9 166.124 113.489 164.346 122.336C175.02 124.722 184.616 128.084 192.631 132.22C200.036 121.078 204.723 107.972 205.744 93.8509H167.548ZM205.926 85.8509H167.627C167.497 74.4517 166.341 63.5895 164.346 53.6605C175.02 51.2742 184.616 47.9122 192.632 43.7763C200.68 55.8876 205.517 70.3178 205.926 85.8509ZM213.931 85.9532C212.845 38.2967 173.872 -0.00195312 125.955 -0.00195312C77.3535 -0.00195312 37.9546 39.397 37.9546 87.998C37.9546 136.599 77.3535 175.998 125.955 175.998C172.612 175.998 210.789 139.687 213.768 93.7827C215.624 93.436 217.028 91.8075 217.028 89.8509C217.028 87.9522 215.706 86.3625 213.931 85.9532ZM84.2826 85.8509H45.9828C46.3921 70.3177 51.229 55.8875 59.2777 43.7761C67.293 47.9121 76.8892 51.2741 87.563 53.6604C85.5679 63.5894 84.4118 74.4517 84.2826 85.8509ZM46.1654 93.8509H84.3611C84.6737 103.9 85.7853 113.489 87.5631 122.336C76.8893 124.722 67.2931 128.084 59.2779 132.22C51.8729 121.077 47.1865 107.972 46.1654 93.8509ZM145.672 165.55C152.798 157.458 158.681 145.118 162.559 130.134C172.14 132.273 180.686 135.216 187.804 138.743C177.138 151.728 162.464 161.294 145.672 165.55ZM89.3504 130.134C79.7695 132.273 71.223 135.216 64.1056 138.743C74.7713 151.728 89.4457 161.294 106.237 165.55C99.1111 157.458 93.2287 145.118 89.3504 130.134ZM154.691 47.397C145.749 48.8981 136.079 49.7244 125.955 49.7244C115.83 49.7244 106.16 48.8981 97.2179 47.397C98.9956 40.6334 101.193 34.5104 103.709 29.1973C110.931 13.9524 119.335 7.99805 125.955 7.99805C132.574 7.99805 140.979 13.9524 148.2 29.1973C150.717 34.5104 152.914 40.6334 154.691 47.397ZM187.804 37.2532C180.686 40.7805 172.14 43.7232 162.559 45.8627C158.681 30.8788 152.798 18.5379 145.672 10.4463C162.464 14.7025 177.138 24.2687 187.804 37.2532ZM89.3503 45.8626C93.2286 30.8787 99.1111 18.5379 106.237 10.4463C89.4456 14.7024 74.7711 24.2687 64.1054 37.253C71.2228 40.7804 79.7694 43.7232 89.3503 45.8626Z" fill="url(#paint0_linear_3201_6910)"/>
<path d="M41.6109 10.999C45.0131 10.999 47.7708 13.6107 47.7708 16.8324V18.3369C47.7708 19.4414 48.666 20.3367 49.7704 20.3369L62.5626 20.3394L63.0061 20.377C64.1558 20.5746 65.0271 21.5272 65.0271 22.6727L65.0243 31.1642C65.0239 32.2675 64.1302 33.1621 63.0268 33.1635L61.3208 33.1657C55.5373 33.1657 50.737 37.3771 50.2713 42.8071L50.2368 43.5715C50.2348 49.1444 54.6818 53.6902 60.416 54.1312L61.2232 54.1638L63.0204 54.1603C64.1262 54.1581 65.0239 55.0538 65.0243 56.1596L65.0271 64.6732C65.0271 65.9612 63.9242 67.006 62.5631 67.006L47.3112 67.0036C46.204 67.0034 45.3073 67.9028 45.3109 69.01L45.3157 70.506C45.3152 73.7209 42.5575 76.3324 39.1553 76.3324C35.7535 76.3324 32.9955 73.7209 32.9955 70.499L32.9908 68.9973C32.9873 67.895 32.0926 67.0034 30.9904 67.0036L18.2111 67.006C16.8508 67.006 15.7476 65.9612 15.7476 64.6727L15.7438 51.5022C15.7435 50.3964 14.8459 49.5007 13.74 49.5028L12.0381 49.506C8.64094 49.506 5.88305 46.8946 5.88305 43.6727C5.88305 40.4511 8.64094 37.8394 12.043 37.8394L13.7476 37.8361C14.8505 37.834 15.7435 36.9396 15.7438 35.8367L15.7476 22.6733C15.7476 21.384 16.8508 20.3394 18.2116 20.3394L33.4512 20.337C34.5556 20.3368 35.4509 19.4414 35.4509 18.337V16.8324C35.4509 13.6107 38.2086 10.999 41.6109 10.999Z" fill="#003595"/>
<defs>
<linearGradient id="paint0_linear_3201_6910" x1="31.455" y1="6.99841" x2="165.955" y2="139.998" gradientUnits="userSpaceOnUse">
<stop stop-color="white"/>
<stop offset="1" stop-color="white" stop-opacity="0"/>
</linearGradient>
</defs>
</svg>
