<svg width="192" height="65" viewBox="0 0 192 65" fill="none" xmlns="http://www.w3.org/2000/svg">
<rect width="191.238" height="64" transform="translate(0.0214844 0.186523)" fill="white"/>
<path d="M75.4496 45.4428C68.6687 45.4428 63.0306 40.4905 62.0401 33.9381C61.9639 33.2524 61.8877 32.6428 61.8877 31.9571C61.8877 31.3476 61.8877 30.8143 61.9639 30.2047C62.802 23.5 68.5163 18.319 75.4496 18.319C82.3829 18.319 88.0972 23.5 88.8591 30.2047C88.9353 30.8143 88.9353 31.3476 88.9353 31.9571C88.9353 32.6428 88.8591 33.3286 88.7829 34.0143C87.8687 40.4905 82.2306 45.4428 75.4496 45.4428ZM59.221 33.9381C60.2877 42.0143 67.1448 48.1857 75.4496 48.1857C83.7544 48.1857 90.6115 41.9381 91.6782 33.9381C91.7544 33.2524 91.8306 32.6428 91.8306 31.9571C91.8306 31.3476 91.8306 30.8143 91.7544 30.2047C90.8401 21.9 83.9067 15.5762 75.4496 15.5762C66.9925 15.5762 60.0591 21.9762 59.221 30.2047C59.1448 30.8143 59.1448 31.3476 59.1448 31.9571C59.0686 32.6428 59.1448 33.2524 59.221 33.9381Z" fill="#003595"/>
<path d="M36.3642 39.1189C36.3642 42.3189 33.6975 44.9094 30.4975 44.9094H19.5261V33.176L30.8784 33.2522C32.8594 33.2522 34.6118 34.2427 35.6023 35.7665C36.0594 36.6808 36.3642 37.5189 36.3642 38.5856V39.1189ZM30.0403 18.8522C33.088 18.8522 35.6023 21.2903 35.6784 24.4141V24.8713C35.6023 27.9189 33.1642 30.4332 30.0403 30.4332H19.5261V18.8522H30.0403ZM39.0308 38.357C38.9546 36.8332 38.5737 35.4618 37.888 34.2427C37.2023 33.0999 36.2118 32.1856 35.0689 31.4999C36.9737 30.1284 38.1927 27.9189 38.4213 25.4808V25.3284C38.4213 25.176 38.4213 25.0237 38.4213 24.7951V24.4903C38.4213 24.3379 38.4213 24.1856 38.4213 23.957C38.1165 19.6141 34.5356 16.1094 30.0403 16.1094H16.7832V47.7284H30.5737C35.2213 47.7284 39.0308 43.9951 39.107 39.3475L39.0308 38.357Z" fill="#003595"/>
<path d="M48.7068 15.8809L48.1735 15.9571L47.7925 16.0333L47.183 16.2618L46.5735 16.5666L46.0402 16.9476L45.8878 17.3285L45.6592 17.6333L45.583 17.7857V17.8618V18.0142L45.8116 18.5476L46.1925 18.7761L46.5735 19.2333L46.8782 19.538L47.3354 19.7666L47.7163 19.8428H48.3259L48.7068 19.919L49.164 19.9952H49.6973L50.2306 20.0714L50.9163 19.9952L51.4497 19.8428L52.1354 19.6142L52.364 19.3095L52.6687 19.0047L52.9735 18.5476L52.8973 18.1666L52.8211 17.5571L52.1354 16.5666L51.5259 16.1095L51.2973 15.9571L51.0687 15.8809H50.8402L50.1544 15.9571L49.4687 15.8047L49.164 15.7285L48.7068 15.8809Z" fill="#FF4438"/>
<path d="M46.3448 26.3193L49.621 26.3955L50.0781 26.3193H50.7638L51.3733 26.3955L51.8305 26.5479L52.2114 26.7765L52.3638 26.9289L52.44 27.0812V27.3098V27.5384L52.2876 27.6908L51.9829 27.9193L51.6019 27.9955H50.9924L49.1638 27.8431L46.421 27.5384L46.2686 27.4622L46.1924 27.386V27.005L46.3448 26.3193Z" fill="#EB0045"/>
<path d="M47.259 29.3662L47.5637 29.5948L47.7161 29.671L47.9447 29.7472L48.0971 29.671L48.2495 29.5948L48.4018 29.5186H48.5542L48.859 29.5948L49.1637 29.671L49.3923 29.5948L49.6971 29.5186L50.0018 29.671L50.1542 29.7472H50.3066L51.2209 29.5948L51.9828 29.7472H52.059V29.8995L51.9828 29.9757V30.0519L52.2114 30.2043L52.4399 30.2805H52.5161V30.4329L52.5923 30.5091L52.5161 30.7376L52.4399 30.8138L52.3637 30.89L51.9066 30.9662L50.6114 31.0424L48.7066 30.8138L47.1066 30.5091L46.878 30.3567L46.6495 30.2043L46.5733 29.8995L46.4971 29.671L47.259 29.3662Z" fill="#D50057"/>
<path d="M46.8019 31.1953L47.3352 31.3477L47.5638 31.4239H47.7924L50.0781 31.3477L50.9162 31.4239L51.6781 31.5763L51.9829 31.6525L52.1352 31.7286L52.2876 31.881L52.44 32.1096V32.4144V32.6429L52.2876 32.7953V32.9477H50.0781H49.3924L48.6305 32.8715L47.9448 32.7191L47.2591 32.6429L46.8019 32.5667L46.5733 32.4905L46.4971 32.4144L46.2686 32.0334L46.1924 31.5763L46.8019 31.1953Z" fill="#D50057"/>
<path d="M46.9543 33.7861L47.9448 33.9385H48.3257L48.5543 33.8623H48.9352L49.5448 33.9385H50.4591L51.2971 33.8623H51.6019L51.9067 33.9385L52.3638 34.3195L52.44 34.548L52.5924 34.7766V35.0052L52.5162 35.2338L52.2876 35.9957L52.1352 36.3004L51.9067 36.529L51.7543 36.6052H51.6019L51.221 36.529L50.84 36.4528H50.5352H50.3067L50.0781 36.6052L49.8495 36.6814H49.621L48.9352 36.529L48.4781 36.4528L48.021 36.529H47.9448H47.7924L47.7162 36.4528L47.5638 36.3766H47.2591H47.1829L47.1067 36.3004L46.8019 35.7671L46.421 35.3861L46.2686 35.1576L46.1924 34.929L46.2686 34.6242L46.4971 34.3957L46.9543 33.7861Z" fill="#C017A2"/>
<path d="M48.0972 38.8906L48.4782 38.8145L48.8591 38.8906L50.9925 39.1192L51.5258 39.1954L52.1353 39.3478L52.3639 39.5002L52.5925 39.7287L52.821 40.0335L52.9734 40.4906L53.0496 41.2525V41.6335L52.8972 42.0145L52.6687 42.243L52.4401 42.4716L51.7544 42.7764L49.9258 43.0049L49.3925 42.9287L48.783 42.7764L48.2496 42.624L47.7163 42.5478L46.9544 42.4716L46.421 42.1668L46.0401 41.7859L45.8115 41.3287V40.7954L45.8877 40.4145L46.1163 40.0335L46.4972 39.7287L47.183 39.3478L47.6401 39.1954L47.7925 39.1192L47.8687 39.043L47.9449 38.9668L48.0972 38.8906Z" fill="#60269E"/>
<path d="M49.0876 44.9854L48.3257 45.214L47.64 45.4425L46.9543 45.8235L46.5733 46.1282L46.4209 46.5092L46.2686 46.9663L46.3447 47.4235L46.4971 47.8806L46.5733 48.1092L46.8019 48.2616L47.3352 48.5663L48.0209 48.7187L48.859 48.7949H49.7733L50.6114 48.6425L51.2971 48.414L51.9066 48.033L52.1352 47.8044L52.2876 47.4997L52.3638 47.1187V46.5854L52.2114 45.7473L52.059 45.6711L51.9066 45.5949L51.5257 45.5187L51.3733 45.3663L51.1447 45.1378L50.3828 44.9092L49.6971 44.833L49.0876 44.9854Z" fill="#051C2C"/>
<path d="M162.981 15.792C170.387 15.792 174.09 18.6171 174.09 24.2674C174.09 25.5017 173.774 26.6811 173.144 27.8057C172.54 28.9303 171.745 29.7257 170.757 30.192V30.2743C172.513 30.576 173.98 31.4948 175.16 33.0308C176.366 34.5668 176.97 36.2674 176.97 38.1326C176.97 40.8206 175.982 42.9463 174.008 44.5097C172.06 46.0457 169.496 46.8137 166.314 46.8137H158.949V15.792H162.981ZM162.817 29.5337H163.928C165.71 29.5337 167.068 29.3143 168.001 28.8754C168.933 28.4091 169.578 27.8331 169.934 27.1474C170.291 26.4343 170.469 25.5017 170.469 24.3497C170.469 23.3897 170.318 22.5531 170.017 21.84C169.742 21.0994 169.139 20.4823 168.206 19.9886C167.274 19.4948 165.861 19.248 163.969 19.248H162.817V29.5337ZM165.902 43.3577C168.234 43.3577 170.017 42.9051 171.251 42C172.485 41.0674 173.102 39.696 173.102 37.8857C173.102 36.1303 172.403 34.8137 171.004 33.936C169.605 33.0583 167.576 32.6194 164.915 32.6194H162.817V43.3577H165.902Z" fill="#003595"/>
<path d="M154.486 15.792V19.3303H141.691V28.0114H154.116V31.5497H141.691V43.2754H154.486V46.8137H137.823V15.792H154.486Z" fill="#003595"/>
<path d="M113.741 15.1338L122.504 38.0092L131.185 15.7921H135.382L122.504 48.0481L113.741 25.2961L104.977 48.0481L92.0996 15.7921H96.2962L104.977 38.0092L113.741 15.1338Z" fill="#003595"/>
</svg>
